<?xml version="1.0" encoding="UTF-8"?>
<svg enable-background="new 0 0 176.8 390.6" version="1.1" viewBox="0 0 176.8 390.6" xml:space="preserve" xmlns="http://www.w3.org/2000/svg">
<style type="text/css">
	.st0{fill:#CCCCCC;}
</style>
<title>Silhouette-maleakimbo</title>

<g transform="translate(-299.12 -305.31)">
	
		
			<path class="st0" d="m399.7 355.6-25.7 2-3 5-3 3-9.1 5.5-6 4-6 1-7.6 7-15.6 18.6-10.1 12.6-13.6 17.3-0.5 5 2.5 11.6 4.5 4 13.6 11.6 14.6 14.1 8.1 6.5 1.5-2.5s3 3.2 4.5 3.8c1.9 0.8 4.5-0.8 4.5-0.8l4.5-1 77.5 6 4-5.5 6.5-1.5 4-7 1 1 3.5-11.6 9.1-19.1 2.5-10.1-1.5-12.6-2-2-22.2-34.2-8.6-11.1-7-6.5-11.6-4-6.5-1-6.8-9.1zm28.2 57.9 8.1 5.5 5.5 15.6 2 3.5v3l1 5.5v3l-2 2.5-2 9.6-1.5 3.5-2 6.5-9.1-1.5 0.5-2.5-0.5-3.5 1.5-5.5v-10.5l-2-7v-5l1.5-7-1-6.5v-9.2zm-81.5 12.6 4 17.1 1.5 4 5.5 15.6 4.5 3.5-8.1 6.5-9.6-10.1-6-4.5-1-2.5-4.5-3v-3.5l-4-4-3-4 3-2 3-3 9.1-5 5.6-5.1z"/>
		<path class="st0" d="m375.1 357.8-2-5.3-4 1-1.5-3.5 1.3 1.3 2.8 0.3-2.5-5-4-5.5v-3.5l-3.5-10.1 3.5-8.6 7.6-9.1 3-2.5 8.1-1.5 5.5 1.5 7.6 3.5 6 10.1 2 6.5 2-0.5-1.5 3v8.1l-4 4.5 0.5 5-4.5 11.6-22.4-1.3z"/>
		<path class="st0" d="m359.9 483-3 6.5-1.5 7.6v9.6l1 6.5 2.5 20.1 1.5 15.6 1.6 13.1 2.5 14.6-0.5 7-1 9.1 4 40.8 6 34.7 1 5.5 5 1.5 0.5 5 1 1s-3.5-1 0 4.5 8.1 8.6 8.1 8.6l9.1 1h8.1l2-3 1-5.5-8.1-11.1 0.5-4h-2l-0.5-15.6-6-28.2-5-27.2 2-3-1-6.5 6.5-40.3 5.5-20.1 7 16.6 8.1 19.1 4 15.1 1 4.5 2.5 1.5-2 4 2.5 16.6v15.1l-2.5 21.7 2.5 5.5-4 18.1-2 4.5v8.1l0.5 2v4.5l13.6 2.5 5.5-1 20.6 4 12.6-2.5 4.5-2-3.5-4-15.6-4.5-5-7.6 1.5-2-2-22.2-0.5-29.2-0.5-16.6 1.5-4.5-1.5-7.6 2-17.1v-6l-2-4.5-5.5-25.2-7-28.7v-3l-2.5-2 3-16.1-77.6-4.9z"/>
	
</g>
</svg>
